<svg xmlns="http://www.w3.org/2000/svg" xmlns:xlink="http://www.w3.org/1999/xlink" width="798" height="768" viewBox="0 0 798 768">
  <defs>
    <clipPath id="clip-Logo_on_white_">
      <rect width="798" height="768"/>
    </clipPath>
  </defs>
  <g id="Logo_on_white_" data-name="Logo (on white)" clip-path="url(#clip-Logo_on_white_)">
    <rect width="798" height="768" fill="#fff"/>
    <g id="Group_32" data-name="Group 32" transform="translate(0 3)">
      <path id="Exclusion_1" data-name="Exclusion 1" d="M574.353,238.081a3.034,3.034,0,0,1-2.812-2.9l-7.335-39.708c2.332-.969,4.657-2.047,6.911-3.2l6.153,41.928a3.439,3.439,0,0,1-2.458,3.844A2.5,2.5,0,0,1,574.353,238.081Zm-72.43,0a2.486,2.486,0,0,1-.351-.025,3.438,3.438,0,0,1-2.63-3.729l2.709-35.3h0A94.806,94.806,0,0,1,449.2,54.816a95.12,95.12,0,0,1,41.729-34.363A94.721,94.721,0,0,1,580.873,29.2a95.119,95.119,0,0,1,34.363,41.729,94.779,94.779,0,0,1-6.85,87.027,95.2,95.2,0,0,1-37.269,34.311l-4.791-32.651h6.823v-9.977h-.14l-28.546-2.712c-.532-.05-1.062-.094-1.576-.129.209-2.34.24-4.6.273-7a74.747,74.747,0,0,1,.678-10.677c.222-1.39.57-2.788.906-4.141.252-1.014.511-2.059.717-3.092a30.007,30.007,0,0,0,.388-9.1,28.585,28.585,0,0,1-.041-5.688,37.644,37.644,0,0,1,.947-5.466c.281-1.242.571-2.527.765-3.861,3.117.587,6.248,1.29,9.307,2.087a6.537,6.537,0,0,0,1.639.209,6.185,6.185,0,0,0,5.975-4.25l.4-1.287a5.492,5.492,0,0,0-.473-4.35,6.688,6.688,0,0,0-4.19-3.174,152.692,152.692,0,0,0-76.96,0,6.689,6.689,0,0,0-4.19,3.174,5.494,5.494,0,0,0-.474,4.35c.132.428.265.859.4,1.287a6.183,6.183,0,0,0,5.974,4.25,6.534,6.534,0,0,0,1.639-.209c2.157-.562,4.35-1.077,6.518-1.532a28.84,28.84,0,0,0,1.551,5.772,32.49,32.49,0,0,1,1.428,4.967,24.953,24.953,0,0,1,.466,5.3,26.1,26.1,0,0,0,1.2,8.413c.336,1.062.671,1.948.995,2.805a39.119,39.119,0,0,1,2.529,10.481c.19,1.442.313,2.6.421,3.627A56.237,56.237,0,0,0,503,147.794a49.987,49.987,0,0,0-6.844,1.844v9.977h8.523l-3.025,39.41h0c2.294.658,4.647,1.236,6.993,1.719l-3.935,34.3A3.023,3.023,0,0,1,501.923,238.081Zm26.787,0a2.911,2.911,0,0,1-2.891-2.821l-2.05-32.655h0a95.245,95.245,0,0,1-15.123-1.858l4.718-41.13h7.708l2.7,42.989h0c1.342.057,2.713.086,4.076.086,1.056,0,2.126-.018,3.181-.052l.564,32.484a2.926,2.926,0,0,1-.838,2.1,2.839,2.839,0,0,1-2.016.86ZM549.06,238a2.891,2.891,0,0,1-2.879-2.706l-3.315-33.786a95.664,95.664,0,0,1-11.839,1.131h0l-.748-43.023h8.478l4.11,41.892c2.431-.387,4.877-.875,7.271-1.452l1.811,34.961a2.876,2.876,0,0,1-2.7,2.977C549.183,238,549.121,238,549.06,238Zm1.078-37.944-2.094-40.44h9.54l6.623,35.855a94.451,94.451,0,0,1-14.068,4.585h0Zm-42.208-53.006h0l-.021-.178a63.7,63.7,0,0,0-1.96-9.136c-.248-.928-.482-1.8-.675-2.592a48.061,48.061,0,0,1-1.466-11.566,24.724,24.724,0,0,0-1.431-8.907c-2.213-6.072-2.226-6.331-2.545-12.952l-.027-.55a22.486,22.486,0,0,0-.515-4c1.573-.256,3.152-.485,4.694-.682-.275,1.116.465,4.609.806,5.81l.133.48c1.791,6.461,1.861,6.714,1.689,13.345a28.012,28.012,0,0,0,1.707,9.893c.4,1.278.779,2.483,1.058,3.767A62.448,62.448,0,0,1,510.5,139.5c.139,2.3.282,4.683.663,7.294-1.082.057-2.169.144-3.23.257Zm8.393-.346h0c-.08-.722-.293-2.546-.55-3.9-.207-1.188-.47-2.425-.748-3.734a66.758,66.758,0,0,1-1.568-10c-.073-1.342-.03-2.63.015-3.993a28.094,28.094,0,0,0-.983-9.982c-1.916-6.272-1.915-6.53-1.912-13.125v-.685a22.213,22.213,0,0,0-.551-5.206,1.3,1.3,0,0,1-.046-.2l0-.023c2.562-.216,5.163-.362,7.731-.436,0,.011,0,.02,0,.029l0,.022a26.6,26.6,0,0,0,.711,6.9,33.258,33.258,0,0,1,.74,5.261,32.4,32.4,0,0,1-.34,6.062l0,.018q-.056.473-.111.947a28.485,28.485,0,0,0,.841,10.069c.285,1.309.554,2.546.717,3.835a68.655,68.655,0,0,1,.256,10.25c-.037,1.326-.071,2.578-.061,3.738-.007,1.05.029,2.16.113,3.493.013.144.025.289.036.433l0,.034q.008.094.015.188Zm9.39-.021h0a67.742,67.742,0,0,0-.649-8.221,68.188,68.188,0,0,1-.685-10.149c.044-1.337.21-2.7.371-4.023v-.005c.12-.988.245-2.011.317-3.013a25.939,25.939,0,0,0-.756-8.491,24.972,24.972,0,0,1-.776-5.416,34.154,34.154,0,0,1,.244-5.288,28.12,28.12,0,0,0,.109-6.7c2.243.035,4.495.125,6.693.266a23.007,23.007,0,0,0,.04,4.414l.049.513c.642,6.726.667,6.989-.645,13.451a28.6,28.6,0,0,0-.027,10.11c.171,1.337.333,2.6.385,3.9a68.856,68.856,0,0,1-.613,10.167,66.418,66.418,0,0,0-.586,8.479Zm8.516-.018h0a57.487,57.487,0,0,0,.105-7.751c-.041-1.044-.087-2.224-.107-3.69a40.764,40.764,0,0,1,.988-10.929c.2-.918.4-1.863.579-2.984a26.877,26.877,0,0,0-.03-8.616,25.691,25.691,0,0,1-.3-5.395,34.021,34.021,0,0,1,.7-5.22,30.73,30.73,0,0,0,.7-5.894c1.486.162,2.989.352,4.468.563-.034,1.023-.026,1.98,0,2.438l.026.585c.314,7.084.326,7.36-1.3,14.1a27.508,27.508,0,0,0-.571,9.519,54.436,54.436,0,0,1-.361,12.619c-.119.884-.27,1.857-.43,2.888v.008c-.37,2.382-.789,5.079-.977,7.751Z" transform="translate(-129 195)"/>
      <text id="CORNER_SPACE" data-name="CORNER SPACE" transform="translate(399 494)" font-size="40" font-family="Bitter" font-weight="500" letter-spacing="0.216em"><tspan x="-194.48" y="0">CORNER SPACE</tspan></text>
      <text id="INTERIORS" transform="translate(338 550)" font-size="20" font-family="Montserrat-Light, Montserrat" font-weight="300" letter-spacing="0.08em"><tspan x="0" y="0">INTERIORS</tspan></text>
      <g id="Group_11" data-name="Group 11" transform="translate(-17.5 17)">
        <line id="Line_1" data-name="Line 1" x2="92.324" transform="translate(370.5 499.5)" fill="none" stroke="#000" stroke-linecap="round" stroke-width="1"/>
        <line id="Line_2" data-name="Line 2" y2="9" transform="translate(416.662 494.5)" fill="none" stroke="#000" stroke-linecap="round" stroke-width="1"/>
      </g>
    </g>
  </g>
</svg>
